<svg width="8" height="10" viewBox="0 0 8 10" fill="none" xmlns="http://www.w3.org/2000/svg">
<path d="M7.54166 3.75H6.91666V2.91666C6.91666 1.3084 5.60828 0 4 0C2.39172 0 1.08334 1.3084 1.08334 2.91666V3.75H0.45834C0.343184 3.75 0.25 3.84318 0.25 3.95834V9.16668C0.25 9.62627 0.62373 10 1.08334 10H6.91668C7.37627 10 7.75 9.62627 7.75 9.16666V3.95834C7.75 3.84318 7.65682 3.75 7.54166 3.75ZM4.62379 8.10201C4.63029 8.1608 4.61139 8.2198 4.57191 8.26396C4.53244 8.30811 4.47588 8.33334 4.41668 8.33334H3.58334C3.52414 8.33334 3.46758 8.30811 3.42811 8.26396C3.38863 8.21982 3.36971 8.16082 3.37623 8.10201L3.50766 6.92018C3.29424 6.76494 3.16668 6.51937 3.16668 6.25C3.16668 5.79041 3.54041 5.41666 4.00002 5.41666C4.45963 5.41666 4.83336 5.79039 4.83336 6.25C4.83336 6.51937 4.7058 6.76494 4.49238 6.92018L4.62379 8.10201ZM5.66666 3.75H2.33334V2.91666C2.33334 1.99768 3.08102 1.25 4 1.25C4.91898 1.25 5.66666 1.99768 5.66666 2.91666V3.75Z" fill="black"/>
</svg>
